<svg xmlns="http://www.w3.org/2000/svg" viewBox="0 0 64.62 37.6">
                <defs>
                  <style>
                    .cls-1 {
                      fill: #fff;
                    }
                  </style>
                </defs>
                <g
                  id="Group_1"
                  data-name="Group 1"
                  transform="translate(-963.6 -563.2)"
                >
                  <path
                    id="Path_2"
                    data-name="Path 2"
                    class="cls-1"
                    d="M24.5-35.8v4.6H8.2v11.857H22.9v4.492H8.2V-3H24.5V1.6H3.6V-35.8Z"
                    transform="translate(960 599)"
                  />
                  <path
                    id="Path_1"
                    data-name="Path 1"
                    class="cls-1"
                    d="M1.85-16.45q0,7.5,4.692,11.95Q11.814.8,20.408.8A19.471,19.471,0,0,0,34.326-4.6,17.607,17.607,0,0,0,40.02-17.9a17.607,17.607,0,0,0-5.694-13.3,19.471,19.471,0,0,0-13.918-5.4,21.96,21.96,0,0,0-7.855,1.4,15.75,15.75,0,0,0-6.063,3.95l3.48,3.3a11.68,11.68,0,0,1,4.508-3.125A15.6,15.6,0,0,1,20.408-32.2a14.6,14.6,0,0,1,10.439,4.05A13.707,13.707,0,0,1,35.064-17.9,13.707,13.707,0,0,1,30.847-7.65,14.6,14.6,0,0,1,20.408-3.6a14.529,14.529,0,0,1-9.384-3A11.75,11.75,0,0,1,6.7-14.85H20.408v-4.3H2.114A14.589,14.589,0,0,0,1.85-16.45Z"
                    transform="translate(988.2 600)"
                  />
                </g>
              </svg>