<svg xmlns="http://www.w3.org/2000/svg" width="82.918" height="48.919" viewBox="0 0 82.918 48.919">
  <path id="Path_5" data-name="Path 5" d="M-1990,259.919V212.647h31.854v8.24h-21.859v11.264h20.22v8.24h-20.22v11.288h21.952v8.24Zm40.148-20.343v-5.955h19.781v7.525h-10.156c.139,5.863,4.132,9.579,10.779,9.579,7.5,0,12.233-5.609,12.233-15.488,0-9.833-4.916-15.4-12.141-15.4-5.147,0-8.632,2.655-9.9,7.087h-10.156c1.292-9.348,9.533-15.927,20.219-15.927,12.487,0,22.112,9,22.112,24.329,0,14.958-9,24.237-22.32,24.237C-1941.335,259.565-1949.852,252.017-1949.852,239.576Z" transform="translate(1990 -211)" fill="#fff"/>
</svg>
