<svg xmlns="http://www.w3.org/2000/svg" width="78.966" height="48.919" viewBox="0 0 78.966 48.919">
  <path id="neweg2" d="M-1990,259.919V212.647h29.638v6.14h-22.505v14.4h20.958v6.116h-20.958v14.473h22.782v6.14Zm37.806-19.813v-5.378h18.583v5.886h-11.681c.162,7.617,5.194,12.441,12.766,12.441,8.334,0,14.405-6.3,14.405-17.8,0-11.449-6.117-17.751-14.128-17.751-6.278,0-10.526,3.462-12.3,9.071h-7.318c1.593-9.21,9.464-15.581,19.669-15.581,12.234,0,21.168,9.211,21.168,24.306,0,14.957-8.68,24.259-21.492,24.259C-1944,259.565-1952.194,252.041-1952.194,240.107Z" transform="translate(1990 -211)" fill="#fff"/>
</svg>
